<svg width="17" height="18" viewBox="0 0 17 18" fill="none" xmlns="http://www.w3.org/2000/svg">
<path d="M13.5137 4.5H6.14258C5.09734 4.5 4.25 5.39718 4.25 6.50391V14.3086C4.25 15.4153 5.09734 16.3125 6.14258 16.3125H13.5137C14.5589 16.3125 15.4062 15.4153 15.4062 14.3086V6.50391C15.4062 5.39718 14.5589 4.5 13.5137 4.5Z" stroke="white" stroke-linejoin="round"/>
<path d="M12.7334 4.5L12.75 3.65625C12.7486 3.13456 12.5522 2.63466 12.2039 2.26577C11.8555 1.89688 11.3833 1.68898 10.8906 1.6875H3.71875C3.15568 1.68926 2.61614 1.92688 2.21799 2.34846C1.81983 2.77003 1.59541 3.3413 1.59375 3.9375V11.5312C1.59515 12.0529 1.7915 12.5528 2.1399 12.9217C2.48829 13.2906 2.96042 13.4985 3.45312 13.5H4.25" stroke="white" stroke-linecap="round" stroke-linejoin="round"/>
</svg>
